<svg data-v-423bf9ae="" xmlns="http://www.w3.org/2000/svg" viewBox="0 0 439 112" class="iconLeft"><!----><!----><!----><g data-v-423bf9ae="" id="395e9f35-ad5d-49c5-a298-534e6bdf1590" fill="#000000" transform="matrix(4.431314947937408,0,0,4.431314947937408,109.18652108653143,7.431477484073248)"><path d="M5.25 9.49L3.18 4.26L0.92 4.26L0.92 14.92L2.77 14.92L2.77 7.77L4.42 11.79L5.92 11.79L7.59 7.76L7.59 14.92L9.44 14.92L9.44 4.26L7.32 4.26ZM12.94 9.63C12.94 8.37 13.27 8.01 14.24 8.01C15.20 8.01 15.54 8.37 15.54 9.63L15.54 11.80C15.54 13.06 15.20 13.44 14.24 13.44C13.27 13.44 12.94 13.06 12.94 11.80ZM14.24 6.34C12.05 6.34 11.05 7.34 11.05 9.65L11.05 11.79C11.05 14.11 12.05 15.09 14.24 15.09C16.42 15.09 17.43 14.11 17.43 11.79L17.43 9.65C17.43 7.34 16.42 6.34 14.24 6.34ZM20.69 9.63C20.69 8.37 21.03 8.01 21.99 8.01C22.96 8.01 23.30 8.37 23.30 9.63L23.30 11.80C23.30 13.06 22.96 13.44 21.99 13.44C21.03 13.44 20.69 13.06 20.69 11.80ZM21.99 6.34C19.81 6.34 18.80 7.34 18.80 9.65L18.80 11.79C18.80 14.11 19.81 15.09 21.99 15.09C24.18 15.09 25.19 14.11 25.19 11.79L25.19 9.65C25.19 7.34 24.18 6.34 21.99 6.34ZM26.74 6.51L26.74 14.92L28.63 14.92L28.63 9.42C28.63 8.44 29.12 8.01 29.92 8.01C30.86 8.01 31.16 8.47 31.16 9.58L31.16 14.92L33.05 14.92L33.05 9.38C33.05 7.34 32.31 6.34 30.49 6.34C29.60 6.34 28.90 6.59 28.46 7.10L28.38 6.51ZM43.67 11.54C43.67 12.75 43.16 13.31 41.96 13.31C40.54 13.31 40.17 12.77 40.17 11.28L40.17 7.95C40.17 6.50 40.66 5.89 41.93 5.89C43.12 5.89 43.67 6.36 43.67 7.50L43.67 7.66L45.64 7.66L45.64 7.55C45.63 5.28 44.45 4.09 41.93 4.09C39.38 4.09 38.18 5.36 38.18 7.92L38.18 11.30C38.18 13.78 39.27 15.09 41.90 15.09C44.55 15.09 45.63 13.89 45.63 11.38L45.63 9.28L41.90 9.28L41.90 10.99L43.67 10.99ZM47.21 6.51L47.21 14.92L49.10 14.92L49.10 10.15C49.10 8.79 49.87 8.30 50.78 8.30C50.99 8.30 51.18 8.32 51.35 8.34L51.35 6.40C51.24 6.38 51.10 6.37 50.96 6.37C50.09 6.37 49.36 6.75 48.96 7.27L48.85 6.51ZM56.73 14.92L58.39 14.92L58.39 9.24C58.39 7.07 57.18 6.34 55.38 6.34C53.41 6.34 52.37 7.17 52.37 9.24L54.07 9.24C54.07 8.26 54.52 7.90 55.37 7.90C56.20 7.90 56.60 8.32 56.60 9.28L56.60 10.14C56.21 10.09 55.75 10.05 55.38 10.05C53.09 10.05 52.12 11.00 52.12 12.70C52.12 14.25 53.12 15.09 54.54 15.09C55.48 15.09 56.21 14.80 56.66 14.28ZM56.60 12.05C56.60 13.01 55.92 13.54 55.15 13.54C54.38 13.54 53.98 13.19 53.98 12.54C53.98 11.77 54.40 11.37 55.54 11.37C55.80 11.37 56.31 11.40 56.60 11.45ZM63.66 15.09C65.18 15.09 66.42 14.11 66.42 11.89L66.42 9.65C66.42 7.49 65.52 6.34 63.71 6.34C62.90 6.34 62.19 6.59 61.77 7.07L61.68 6.51L60.03 6.51L60.03 17.63L61.91 17.63L61.91 14.50C62.29 14.87 62.85 15.09 63.66 15.09ZM61.92 9.39C61.92 8.41 62.40 7.99 63.24 7.99C64.15 7.99 64.53 8.48 64.53 9.62L64.53 11.80C64.53 13.01 64.04 13.43 63.22 13.43C62.47 13.43 61.92 13.05 61.92 11.94ZM69.86 4.12L67.97 4.12L67.97 14.92L69.86 14.92L69.86 9.42C69.86 8.44 70.35 8.01 71.15 8.01C72.09 8.01 72.39 8.47 72.39 9.58L72.39 14.92L74.28 14.92L74.28 9.38C74.28 7.34 73.54 6.34 71.72 6.34C70.92 6.34 70.29 6.54 69.86 6.93Z"></path></g><defs data-v-423bf9ae=""><linearGradient data-v-423bf9ae="" gradientTransform="rotate(25)" id="0527dfa9-5a71-4811-95c6-0ad6d2fc8460" x1="0%" y1="0%" x2="100%" y2="0%"><stop data-v-423bf9ae="" offset="0%" style="stop-color: rgb(0, 21, 214); stop-opacity: 1;"></stop><stop data-v-423bf9ae="" offset="100%" style="stop-color: rgb(9, 137, 251); stop-opacity: 1;"></stop></linearGradient></defs><g data-v-423bf9ae="" id="067434a9-3918-4264-a418-550c9c149420" transform="matrix(1.1111111111111112,0,0,1.1111111111111112,-7.413113382127555,-1.7777777777777786)" stroke="none" fill="url(#0527dfa9-5a71-4811-95c6-0ad6d2fc8460)"><path d="M40.604 45.349c0-5.782-4.705-10.491-10.491-10.491-5.781 0-10.491 4.709-10.491 10.491 0 5.785 4.71 10.492 10.491 10.492 5.788 0 10.491-4.705 10.491-10.492zm-16.783 0a6.3 6.3 0 0 1 6.292-6.292 6.3 6.3 0 0 1 6.295 6.292 6.304 6.304 0 0 1-6.295 6.297c-3.467 0-6.292-2.825-6.292-6.297zM32.215 68.43c-4.629 0-8.396 3.765-8.396 8.394s3.767 8.394 8.396 8.394c4.626 0 8.391-3.765 8.391-8.394s-3.765-8.394-8.391-8.394zm0 12.589c-2.314 0-4.198-1.881-4.198-4.195s1.884-4.198 4.198-4.198c2.312 0 4.195 1.884 4.195 4.198s-1.883 4.195-4.195 4.195z"></path><path d="M90.948 59.049c-.003-.144-.009-.287-.012-.428a32.575 32.575 0 0 1-.021-.53c-.009-.196-.021-.39-.032-.583-.006-.108-.015-.22-.021-.331-.018-.24-.032-.483-.056-.724l-.009-.097a41.643 41.643 0 0 0-3.281-12.962.176.176 0 0 1-.021-.038 27.53 27.53 0 0 0-.325-.729c-.088-.196-.179-.39-.27-.58a41.65 41.65 0 0 0-5.473-8.638c-6.059-7.371-14.513-12.504-23.803-14.446-.015-.003-.026-.003-.038-.006a41.903 41.903 0 0 0-8.593-.885 41.71 41.71 0 0 0-19.433 4.779l-2.112-3.654 10.907-6.295L32.062 2l-14.535 8.391 5.247 9.088 1.047 1.817 2.129 3.691C14.566 32.5 7.033 45.406 7.033 60.036 7.033 83.178 25.86 102 48.999 102c2.939 0 5.807-.304 8.576-.881l.056-.009c9.29-1.942 17.745-7.075 23.803-14.446a41.706 41.706 0 0 0 5.379-8.438c.023-.044.041-.088.059-.129.105-.22.211-.437.308-.658a21.89 21.89 0 0 0 .343-.771 41.585 41.585 0 0 0 3.278-12.952l.009-.102c.023-.24.038-.48.056-.719.006-.111.015-.219.021-.333.015-.193.026-.387.032-.581.006-.175.012-.354.021-.53.003-.144.009-.284.012-.428.012-.328.018-.656.018-.99-.007-.325-.013-.656-.022-.984zM23.259 11.931l7.271-4.199 2.095 3.637-7.269 4.195-2.097-3.633zm32.516 85.262a37.805 37.805 0 0 1-6.778.612c-20.824 0-37.767-16.942-37.767-37.77 0-13.636 7.264-25.605 18.123-32.247l1.676-.967a37.592 37.592 0 0 1 17.97-4.552c2.312 0 4.574.211 6.774.609 4.652 9.651 7.343 21.064 7.831 33.193-4.57.97-8.051 4.925-8.294 9.721-.009.179-.015.357-.015.539 0 .179.006.357.015.536.22 4.339 3.091 7.98 7.014 9.363-1.31 7.624-3.511 14.662-6.549 20.963zm10.008-24.565c-.179 0-.357-.015-.536-.029-.064-.006-.132-.012-.199-.023-3.126-.363-5.558-3.026-5.558-6.243a6.3 6.3 0 0 1 6.293-6.293l.003-.003c.135.003.267.015.398.021.088.006.167.006.249.015.132.012.258.038.387.059.082.015.161.021.237.038.126.026.249.062.372.092.076.025.155.038.231.062.12.038.234.087.349.129.076.031.155.053.226.084.111.047.22.104.322.156.076.034.155.07.229.108.097.055.193.116.284.175.079.05.155.092.231.142.012.009.024.021.035.028.076.054.149.112.223.168s.152.107.223.166c.085.071.164.15.249.229.064.057.135.112.196.177.082.084.155.17.234.255.056.064.117.126.167.19.079.094.146.188.217.284.05.067.1.132.149.202.067.099.129.21.19.313.041.067.091.132.126.204.059.109.108.227.164.343.03.07.07.138.098.208.049.117.09.24.134.36.026.073.054.144.079.22.035.126.067.255.097.381.021.076.041.146.056.22.032.149.05.296.07.448.009.059.023.114.029.176.021.214.03.425.03.645.012 3.469-2.812 6.293-6.284 6.293z"></path></g><!----></svg>